<svg width="80" height="81" viewBox="0 0 80 81" fill="none" xmlns="http://www.w3.org/2000/svg">
<rect y="0.5" width="80" height="80" rx="40" fill="url(#paint0_linear_89_67)"/>
<g clip-path="url(#clip0_89_67)">
<path d="M43.9966 51.8048C42.8012 52.4376 41.704 52.9917 40.6395 53.5979C40.1813 53.8549 39.7969 53.8404 39.3423 53.5906C37.7335 52.7141 36.1077 51.869 34.4867 51.0143C34.3509 50.9428 34.2345 50.8106 34.0018 50.8519C34.0018 51.9515 34.0018 53.0584 34.0018 54.1641C34.0018 54.9824 33.8187 55.1643 33.0137 55.1667C32.3275 55.1667 31.6401 55.1788 30.9526 55.1667C30.6811 55.1606 30.538 55.2455 30.3889 55.4904C29.8506 56.3718 28.9922 56.6858 28.0563 56.3973C27.6498 56.2707 27.295 56.0167 27.0443 55.6727C26.7935 55.3287 26.6603 54.9131 26.6642 54.4874C26.6682 54.0618 26.8091 53.6487 27.0662 53.3095C27.3232 52.9702 27.6827 52.7227 28.0914 52.6037C29.0031 52.3346 29.8748 52.645 30.3731 53.5009C30.5562 53.8149 30.7587 53.8513 31.0508 53.8404C31.5722 53.8185 32.2632 54.0028 32.5687 53.7385C32.8743 53.4742 32.65 52.7553 32.6633 52.2376C32.6766 51.6314 32.6512 51.0252 32.673 50.419C32.6827 50.1329 32.5712 49.9838 32.3287 49.8577C31.2569 49.3 30.1905 48.7342 29.1292 48.1604C28.8686 48.0173 28.6976 48.0476 28.5133 48.2731C28.3472 48.4744 28.1229 48.6296 27.9653 48.8357C27.3701 49.6152 26.6317 50.0335 25.6218 49.8456C25.3527 49.7959 25.206 49.9159 25.0568 50.1608C24.5185 51.0434 23.6614 51.3574 22.7242 51.0701C22.318 50.9432 21.9634 50.6889 21.7129 50.3448C21.4624 50.0008 21.3292 49.5852 21.3332 49.1597C21.3371 48.7341 21.4779 48.3211 21.7348 47.9817C21.9916 47.6424 22.3509 47.3947 22.7594 47.2753C23.6711 47.0062 24.5137 47.3323 25.0556 48.164C25.3175 48.5653 26.1941 48.6756 26.5614 48.3313C26.9869 47.9312 27.3834 47.4984 27.8089 47.0983C27.8819 47.028 27.9376 46.9417 27.9714 46.8461C28.0053 46.7506 28.0165 46.6485 28.0041 46.5479C28.0041 44.8918 27.9956 43.2357 28.0041 41.5772C28.0041 41.2838 27.9556 41.1504 27.6174 41.1577C26.5068 41.1783 25.3951 41.1843 24.2858 41.1577C23.9221 41.148 23.8093 41.3614 23.6505 41.5978C23.4504 41.8983 23.1724 42.1387 22.8461 42.2933C22.5199 42.448 22.1578 42.511 21.7985 42.4756C21.4392 42.4402 21.0963 42.3078 20.8065 42.0926C20.5166 41.8773 20.2908 41.5873 20.1531 41.2535C20.0155 40.9198 19.9712 40.5549 20.025 40.1979C20.0787 39.8409 20.2286 39.5052 20.4585 39.2269C20.6884 38.9485 20.9896 38.7379 21.33 38.6175C21.6704 38.4972 22.0371 38.4717 22.3908 38.5438C22.9291 38.6493 23.3838 38.9257 23.6444 39.4082C23.8396 39.7719 24.0894 39.8495 24.4688 39.841C25.4783 39.8168 26.4887 39.8168 27.4998 39.841C27.872 39.8495 28.0199 39.7804 28.0126 39.3561C27.9847 37.7412 27.9944 36.1251 28.0126 34.5066C28.0215 34.3779 28.0004 34.249 27.9509 34.1299C27.9015 34.0109 27.8251 33.9049 27.7277 33.8204C27.3805 33.5131 27.0518 33.1856 26.7433 32.8395C26.5081 32.568 26.251 32.4916 25.9031 32.4855C25.4678 32.477 25.1902 32.5692 24.9392 32.9838C24.481 33.7391 23.568 33.9925 22.7024 33.7112C22.3035 33.5793 21.9567 33.3242 21.7119 32.9827C21.4671 32.6411 21.337 32.2307 21.3402 31.8106C21.3435 31.3904 21.4799 30.982 21.7299 30.6443C21.9799 30.3066 22.3306 30.0569 22.7315 29.9311C23.6056 29.6631 24.4907 29.931 24.9562 30.6961C25.1926 31.084 25.4569 31.2489 25.8703 31.1531C26.8766 30.9264 27.4113 31.6223 28.0041 32.2249C28.7922 33.0263 28.7958 33.0202 29.7645 32.5013C30.5986 32.0551 31.434 31.609 32.2741 31.1762C32.5251 31.0464 32.6803 30.9119 32.673 30.5882C32.6496 29.5787 32.6496 28.5683 32.673 27.5572C32.6803 27.225 32.5615 27.1329 32.2584 27.1656C32.0772 27.1796 31.8952 27.1796 31.714 27.1656C31.0727 27.1353 30.5562 27.1499 30.0955 27.8264C29.4493 28.7744 28.0223 28.7175 27.2197 27.8809C27.0281 27.6803 26.8802 27.442 26.7856 27.1812C26.691 26.9204 26.6517 26.6427 26.6702 26.3659C26.6886 26.089 26.7645 25.8191 26.8929 25.5731C27.0213 25.3272 27.1995 25.1106 27.4161 24.9373C28.3206 24.2195 29.659 24.3965 30.2822 25.3761C30.5247 25.7568 30.7744 25.8708 31.1963 25.8465C31.8207 25.8114 32.4487 25.8344 33.0743 25.8393C33.8017 25.8393 33.9957 26.0405 33.9993 26.7825C33.9993 27.9088 33.9993 29.0351 33.9993 30.2535C35.4833 29.4716 36.8545 28.6775 38.296 28.0167C39.135 27.6324 39.5084 27.1377 39.3362 26.2297C39.3088 25.988 39.3088 25.7439 39.3362 25.5022C39.3653 24.8742 39.3302 24.3796 38.6779 23.9261C37.7359 23.2787 37.7892 21.8493 38.6161 21.0492C38.817 20.8576 39.0556 20.71 39.3168 20.6159C39.578 20.5218 39.8559 20.4832 40.1328 20.5026C40.4097 20.522 40.6796 20.5989 40.9251 20.7285C41.1706 20.8581 41.3863 21.0375 41.5585 21.2553C42.2775 22.1585 42.1053 23.4933 41.1293 24.1177C40.745 24.3602 40.6286 24.622 40.6602 25.0452C40.7183 25.8465 40.3704 26.8043 40.7923 27.4105C41.19 27.984 42.1089 28.1986 42.8012 28.5659C43.8293 29.1115 44.8623 29.6571 45.9946 30.2511V27.7282C45.9946 27.3644 45.9946 27.0007 45.9946 26.637C45.9946 26.0793 46.2771 25.832 46.8215 25.8356C47.5489 25.8356 48.2763 25.8247 49.0037 25.8429C49.1292 25.8586 49.2565 25.8339 49.367 25.7725C49.4775 25.711 49.5656 25.6159 49.6184 25.501C50.1325 24.6524 50.9896 24.3335 51.9025 24.6002C52.3162 24.7202 52.6795 24.9716 52.9375 25.3165C53.1956 25.6614 53.3342 26.0809 53.3326 26.5116C53.3309 26.9423 53.1891 27.3607 52.9284 27.7036C52.6678 28.0465 52.3025 28.2951 51.888 28.4119C50.9775 28.6738 50.1361 28.355 49.6111 27.4942C49.4632 27.2517 49.325 27.1523 49.0486 27.1668C48.6256 27.1965 48.201 27.1965 47.778 27.1668C47.3792 27.1305 47.3161 27.2881 47.3246 27.6457C47.3464 28.6156 47.3464 29.5855 47.3246 30.5554C47.3117 30.6822 47.3402 30.8097 47.4057 30.919C47.4713 31.0282 47.5704 31.1133 47.6883 31.1616C48.7617 31.7169 49.8286 32.2827 50.889 32.8589C51.1181 32.9802 51.2818 32.9875 51.4564 32.7668C51.631 32.5462 51.8456 32.4104 52.0068 32.2055C52.613 31.4235 53.3659 30.9676 54.3976 31.1701C54.7322 31.2356 54.8365 31.0064 54.982 30.7809C55.4997 29.9783 56.3398 29.6704 57.2346 29.9323C57.6484 30.052 58.0119 30.3033 58.2701 30.6482C58.5282 30.9931 58.6669 31.4127 58.6651 31.8435C58.6633 32.2742 58.5212 32.6927 58.2602 33.0354C57.9992 33.3782 57.6336 33.6265 57.2188 33.7428C56.3277 33.9986 55.4936 33.6785 54.9674 32.8796C54.6789 32.4431 53.812 32.3291 53.4229 32.6965C52.9973 33.0978 52.5997 33.527 52.1765 33.9307C52.1116 33.9926 52.0614 34.0683 52.0297 34.1523C51.998 34.2362 51.9856 34.3262 51.9935 34.4156C51.9995 35.8705 52.0068 37.3253 51.9935 38.7802C51.9935 39.1003 52.0917 39.1621 52.3948 39.1912C55.7276 39.5101 57.9717 41.9797 58.0008 45.3331C58.0123 45.5548 58.0123 45.777 58.0008 45.9987C57.9365 46.6861 57.9426 47.2014 58.8628 47.4111C59.6339 47.5869 59.994 48.3531 59.9976 49.1666C60.0097 52.276 60.0097 55.3878 59.9976 58.502C59.9915 59.6525 59.1489 60.4951 58.0032 60.5C54.0048 60.5145 50.0064 60.5145 46.008 60.5C44.8356 60.5 44.0184 59.6355 44.0112 58.4389C43.9978 56.4603 44.0112 54.4817 44.0112 52.4983L43.9966 51.8048ZM31.3333 40.4654C31.3333 41.9384 31.3515 43.4127 31.3212 44.8857C31.3127 45.2943 31.4546 45.4919 31.8062 45.6665C34.4031 46.9492 36.9943 48.2424 39.5799 49.5461C39.7066 49.6222 39.8516 49.6624 39.9994 49.6624C40.1472 49.6624 40.2922 49.6222 40.4189 49.5461C41.8847 48.7908 43.3286 47.987 44.8501 47.3469C45.774 46.9565 46.0807 46.457 46.0237 45.4616C45.9025 43.3727 46.733 41.6535 48.406 40.3696C48.6364 40.1926 48.6679 39.9986 48.6667 39.7477C48.6667 38.5159 48.6473 37.2841 48.674 36.0536C48.6825 35.6644 48.5273 35.4874 48.2024 35.3261C45.5877 34.0329 42.9782 32.7292 40.374 31.415C40.2642 31.3499 40.1391 31.3148 40.0115 31.3133C39.8838 31.3118 39.7579 31.344 39.6466 31.4065C37.0254 32.7304 34.3986 34.0442 31.7661 35.348C31.417 35.5201 31.3273 35.7311 31.3309 36.096C31.3442 37.5593 31.3333 39.013 31.3333 40.4654ZM51.9341 59.1615C53.8739 59.1615 55.8112 59.1615 57.7462 59.1615C58.4373 59.1615 58.6567 58.9457 58.6579 58.2655C58.6579 55.3195 58.6579 52.3734 58.6579 49.4273C58.6579 48.7084 58.447 48.5023 57.7159 48.5011H46.2735C45.546 48.5011 45.3327 48.7072 45.3314 49.4273C45.3314 52.3532 45.3314 55.2791 45.3314 58.2049C45.3314 58.9627 45.5339 59.1615 46.3013 59.1615C48.1797 59.1631 50.0573 59.1631 51.9341 59.1615ZM43.9324 49.2794C42.7891 49.8516 41.6713 50.3972 40.568 50.9767C40.3954 51.0774 40.1992 51.1304 39.9994 51.1304C39.7996 51.1304 39.6034 51.0774 39.4308 50.9767C36.4847 49.4879 33.5346 48.0108 30.5804 46.5455C30.1888 46.3515 29.9997 46.1005 30.0009 45.658C30.0082 42.227 30.0082 38.7956 30.0009 35.3637C30.0009 34.9236 30.1816 34.6666 30.5732 34.4726C33.5306 33.0073 36.4807 31.5306 39.4235 30.0426C39.5958 29.9419 39.7913 29.888 39.9908 29.8863C40.1903 29.8846 40.3868 29.9351 40.5607 30.0329C43.4874 31.5128 46.4202 32.9806 49.359 34.4362C49.8245 34.6654 50.0149 34.9564 50.0052 35.4656C49.9821 36.6779 50.0149 37.8903 49.9882 39.1027C49.9785 39.5501 50.1737 39.4664 50.4525 39.3876C50.7314 39.3088 50.6611 39.0809 50.6623 38.8942C50.6623 37.4805 50.6489 36.0669 50.6756 34.6508C50.6817 34.2992 50.5241 34.1574 50.2573 34.0168C46.9621 32.2798 43.6709 30.5352 40.3837 28.7829C40.2668 28.711 40.1319 28.6736 39.9945 28.6751C39.8572 28.6766 39.7232 28.7169 39.6078 28.7914C36.3223 30.5429 33.0307 32.2839 29.733 34.0143C29.4202 34.1792 29.3256 34.3781 29.3268 34.7151C29.339 38.5705 29.339 42.4258 29.3268 46.2812C29.3268 46.6607 29.4578 46.8449 29.7839 47.0086C33.0476 48.7164 36.3049 50.4368 39.5557 52.1697C39.877 52.3407 40.1061 52.3685 40.4347 52.183C41.3621 51.6581 42.2969 51.1368 43.2668 50.6967C43.9033 50.413 44.1542 50.0226 43.9312 49.2794H43.9324ZM56.6623 45.7441H56.6478C56.6478 45.4822 56.6599 45.2191 56.6478 44.9585C56.5362 42.9132 55.1481 41.1662 53.2422 40.6642C52.2611 40.3991 51.2205 40.4589 50.2763 40.8349C49.3321 41.2108 48.5351 41.8826 48.0047 42.7495C47.1755 44.071 47.327 45.538 47.3488 46.9783C47.3488 47.3081 47.6968 47.1262 47.8859 47.1626C48.4824 47.2753 48.7564 47.0826 48.6788 46.417C48.6327 45.8924 48.6371 45.3646 48.6922 44.8409C48.8134 43.2987 50.0258 42.0609 51.6164 41.8487C53.087 41.6511 54.5807 42.5762 55.1129 43.9837C55.4306 44.8263 55.319 45.698 55.319 46.5588C55.319 46.9904 55.3748 47.1771 55.8913 47.1844C56.5035 47.1941 56.7787 47.051 56.6696 46.4048C56.6482 46.1852 56.6454 45.9642 56.6611 45.7441H56.6623ZM52.1305 47.165C52.6433 47.108 53.5441 47.4536 53.8872 47.0438C54.2303 46.634 54.0084 45.7768 53.9866 45.1173C53.977 44.598 53.7646 44.1031 53.395 43.7383C53.0254 43.3735 52.5277 43.1676 52.0084 43.1648C51.489 43.1619 50.9891 43.3623 50.6155 43.723C50.2419 44.0838 50.0242 44.5763 50.0088 45.0955C49.9809 45.658 50.0221 46.2242 49.9906 46.7928C49.9724 47.142 50.1252 47.1893 50.4174 47.1796C50.9363 47.1517 51.4612 47.165 52.1305 47.165ZM29.3378 26.4891C29.2808 26.1011 29.0662 25.8478 28.6709 25.8478C28.5843 25.8405 28.4971 25.8519 28.4153 25.8813C28.3335 25.9107 28.259 25.9573 28.1968 26.018C28.1346 26.0787 28.0861 26.1521 28.0548 26.2332C28.0234 26.3142 28.0099 26.4011 28.015 26.4879C28.015 26.9122 28.2721 27.1717 28.6976 27.1571C29.0953 27.145 29.2941 26.8807 29.3378 26.4891ZM51.3085 25.8344C50.9205 25.8975 50.6635 26.1108 50.6744 26.5085C50.6853 26.9328 50.9532 27.1838 51.3788 27.1535C51.4657 27.1543 51.5518 27.1364 51.6312 27.1009C51.7106 27.0655 51.7814 27.0135 51.8389 26.9483C51.8964 26.8831 51.9392 26.8063 51.9644 26.7231C51.9896 26.6399 51.9966 26.5522 51.985 26.4661C51.9595 26.0769 51.6989 25.872 51.3085 25.8344ZM24.0033 31.8272C23.9499 31.4392 23.739 31.1834 23.3425 31.1798C23.2561 31.1719 23.1689 31.1826 23.0869 31.2113C23.005 31.24 22.9301 31.286 22.8675 31.3461C22.8048 31.4062 22.7558 31.4791 22.7238 31.5598C22.6918 31.6405 22.6774 31.7271 22.6818 31.8139C22.6697 32.2382 22.9315 32.5025 23.3571 32.4904C23.7535 32.4819 23.9584 32.2188 24.0033 31.8272ZM56.6369 31.1689C56.2938 31.2295 56.0149 31.4114 56.0064 31.8163C55.998 32.2431 56.2489 32.5025 56.6793 32.4964C56.7659 32.5011 56.8525 32.4871 56.9332 32.4555C57.0139 32.4238 57.0869 32.3752 57.1473 32.3129C57.2076 32.2506 57.2538 32.1761 57.2829 32.0944C57.312 32.0127 57.3232 31.9257 57.3158 31.8393C57.3146 31.4356 57.06 31.2247 56.6369 31.1689ZM24.0033 49.1497C23.9463 48.7605 23.7317 48.5071 23.3353 48.5083C23.2486 48.5012 23.1615 48.5128 23.0797 48.5423C22.998 48.5719 22.9235 48.6186 22.8614 48.6795C22.7993 48.7403 22.751 48.8138 22.7198 48.8949C22.6886 48.976 22.6752 49.0629 22.6806 49.1497C22.6806 49.574 22.9376 49.8322 23.3644 49.8177C23.7608 49.8044 23.9633 49.5401 24.0033 49.1497ZM29.3378 54.4744C29.2723 54.0828 29.0577 53.8404 28.6612 53.8404C28.2648 53.8404 28.0126 54.0925 28.0126 54.4878C28.0126 54.9109 28.2757 55.1679 28.7025 55.1497C29.0953 55.1315 29.299 54.866 29.3378 54.4744ZM39.3399 22.5137C39.3702 22.9126 39.5969 23.1526 39.9885 23.1587C40.3801 23.1648 40.6408 22.9381 40.6517 22.5319C40.6638 22.0954 40.4031 21.8469 39.9824 21.8542C39.5896 21.8602 39.3617 22.1051 39.3374 22.5137H39.3399ZM22.0356 41.1601C22.4284 41.114 22.666 40.8813 22.6539 40.4897C22.6418 40.069 22.3823 39.8192 21.9459 39.8507C21.5397 39.8798 21.3264 40.1526 21.3494 40.5406C21.3724 40.9285 21.621 41.1492 22.0356 41.1601Z" fill="#FFFDFF"/>
<path d="M52.0092 57.8291C51.3848 57.8291 50.7592 57.84 50.1337 57.8291C49.5384 57.8157 49.2765 57.5199 49.3541 56.9453C49.4462 56.2675 49.5687 55.5934 49.6608 54.9157C49.7275 54.4235 49.7675 53.9592 49.5396 53.4536C49.0449 52.3491 49.4329 51.0931 50.3883 50.3766C50.8491 50.0262 51.4115 49.8353 51.9904 49.8327C52.5693 49.83 53.1334 50.0159 53.5974 50.362C54.5516 51.0713 54.9504 52.3261 54.4667 53.4354C54.246 53.9386 54.2667 54.4053 54.3358 54.8903C54.4303 55.568 54.5491 56.2433 54.6437 56.921C54.7261 57.5005 54.4715 57.8085 53.886 57.823C53.2555 57.8412 52.6299 57.8291 52.0092 57.8291ZM51.985 56.4955C52.1661 56.4815 52.3481 56.4815 52.5293 56.4955C53.1282 56.59 53.2567 56.396 53.1501 55.7862C52.973 54.7848 52.6312 53.7737 53.2713 52.7553C53.5453 52.32 53.1804 51.6472 52.699 51.3635C52.1765 51.0555 51.6419 51.0761 51.1751 51.4544C50.7083 51.8327 50.4477 52.3831 50.7786 52.8995C51.2721 53.6791 51.0805 54.4381 50.9411 55.2213C50.7107 56.4967 50.7047 56.4967 51.9801 56.4967L51.985 56.4955Z" fill="#FFFDFF"/>
</g>
<defs>
<linearGradient id="paint0_linear_89_67" x1="-19.3366" y1="0.500001" x2="97.7434" y2="88.4503" gradientUnits="userSpaceOnUse">
<stop stop-color="#B112A2"/>
<stop offset="0.891204" stop-color="#F30C0C"/>
</linearGradient>
<clipPath id="clip0_89_67">
<rect width="39.9952" height="40" fill="white" transform="translate(20.0024 20.5)"/>
</clipPath>
</defs>
</svg>
