<svg width="33" height="33" viewBox="0 0 33 33" fill="none" xmlns="http://www.w3.org/2000/svg">
<path d="M15.5595 6.30299C15.9589 5.75466 16.7767 5.75466 17.1761 6.30299L18.9694 8.76507C19.1903 9.06833 19.5624 9.22244 19.933 9.16419L22.942 8.6913C23.6121 8.58598 24.1904 9.16429 24.0851 9.83443L23.6122 12.8434C23.554 13.2141 23.7081 13.5861 24.0114 13.807L26.4734 15.6003C27.0218 15.9997 27.0218 16.8176 26.4734 17.2169L24.0114 19.0103C23.7081 19.2311 23.554 19.6032 23.6122 19.9738L24.0851 22.9828C24.1904 23.653 23.6121 24.2313 22.942 24.126L19.933 23.6531C19.5624 23.5948 19.1903 23.7489 18.9694 24.0522L17.1761 26.5143C16.7767 27.0626 15.9589 27.0626 15.5595 26.5143L13.7662 24.0522C13.5453 23.7489 13.1732 23.5948 12.8026 23.6531L9.7936 24.126C9.12346 24.2313 8.54515 23.653 8.65047 22.9828L9.12336 19.9738C9.18161 19.6032 9.0275 19.2311 8.72424 19.0103L6.26216 17.2169C5.71383 16.8176 5.71383 15.9997 6.26216 15.6003L8.72424 13.807C9.0275 13.5861 9.18161 13.2141 9.12336 12.8434L8.65047 9.83443C8.54515 9.16429 9.12346 8.58598 9.7936 8.6913L12.8026 9.16419C13.1732 9.22244 13.5453 9.06833 13.7662 8.76507L15.5595 6.30299Z" fill="#570DE3"/>
<path d="M13.6921 16.021L15.8 18.4803C15.9995 18.7131 16.3597 18.7131 16.5593 18.4803L20.0866 14.3647" stroke="#FFFDFF" stroke-linecap="round"/>
</svg>
